<mxfile host="app.diagrams.net" modified="2022-07-25T00:34:42.334Z" agent="5.0 (Windows NT 10.0; Win64; x64) AppleWebKit/537.36 (KHTML, like Gecko) Chrome/103.0.5060.66 Safari/537.36 Edg/103.0.1264.44" etag="9IhO7BKtNKv4Gb2Zusfy" version="18.0.2" type="github">
  <diagram id="C5RBs43oDa-KdzZeNtuy" name="Page-1">
    <mxGraphModel dx="1038" dy="579" grid="0" gridSize="10" guides="1" tooltips="1" connect="1" arrows="1" fold="1" page="1" pageScale="1" pageWidth="827" pageHeight="1169" math="0" shadow="0">
      <root>
        <mxCell id="WIyWlLk6GJQsqaUBKTNV-0" />
        <mxCell id="WIyWlLk6GJQsqaUBKTNV-1" parent="WIyWlLk6GJQsqaUBKTNV-0" />
        <mxCell id="acVyYkylDgPHkWjhtnSj-6" value="" style="edgeStyle=orthogonalEdgeStyle;rounded=0;orthogonalLoop=1;jettySize=auto;html=1;" edge="1" parent="WIyWlLk6GJQsqaUBKTNV-1" source="acVyYkylDgPHkWjhtnSj-2" target="acVyYkylDgPHkWjhtnSj-5">
          <mxGeometry relative="1" as="geometry">
            <mxPoint x="351" y="426" as="targetPoint" />
            <Array as="points">
              <mxPoint x="189" y="335" />
              <mxPoint x="189" y="484" />
            </Array>
          </mxGeometry>
        </mxCell>
        <mxCell id="acVyYkylDgPHkWjhtnSj-2" value="" style="rounded=0;whiteSpace=wrap;html=1;fontSize=10;" vertex="1" parent="WIyWlLk6GJQsqaUBKTNV-1">
          <mxGeometry x="29" y="202" width="111" height="250" as="geometry" />
        </mxCell>
        <mxCell id="acVyYkylDgPHkWjhtnSj-3" value="VS code" style="verticalLabelPosition=bottom;html=1;verticalAlign=top;align=center;strokeColor=none;fillColor=#00BEF2;shape=mxgraph.azure.visual_studio_online;" vertex="1" parent="WIyWlLk6GJQsqaUBKTNV-1">
          <mxGeometry x="65" y="230" width="50" height="37.5" as="geometry" />
        </mxCell>
        <mxCell id="acVyYkylDgPHkWjhtnSj-4" value="Git Repository&amp;nbsp;" style="verticalLabelPosition=bottom;html=1;verticalAlign=top;align=center;strokeColor=none;fillColor=#00BEF2;shape=mxgraph.azure.git_repository;" vertex="1" parent="WIyWlLk6GJQsqaUBKTNV-1">
          <mxGeometry x="60" y="370" width="50" height="50" as="geometry" />
        </mxCell>
        <mxCell id="acVyYkylDgPHkWjhtnSj-17" value="Docker Push" style="edgeStyle=orthogonalEdgeStyle;rounded=0;orthogonalLoop=1;jettySize=auto;html=1;entryX=0.002;entryY=0.838;entryDx=0;entryDy=0;entryPerimeter=0;" edge="1" parent="WIyWlLk6GJQsqaUBKTNV-1" source="acVyYkylDgPHkWjhtnSj-5" target="acVyYkylDgPHkWjhtnSj-12">
          <mxGeometry relative="1" as="geometry" />
        </mxCell>
        <mxCell id="acVyYkylDgPHkWjhtnSj-5" value="" style="rounded=0;whiteSpace=wrap;html=1;" vertex="1" parent="WIyWlLk6GJQsqaUBKTNV-1">
          <mxGeometry x="216" y="197" width="189" height="325" as="geometry" />
        </mxCell>
        <mxCell id="acVyYkylDgPHkWjhtnSj-8" value="Azure Devops" style="aspect=fixed;html=1;points=[];align=center;image;fontSize=12;image=img/lib/azure2/devops/Azure_DevOps.svg;" vertex="1" parent="WIyWlLk6GJQsqaUBKTNV-1">
          <mxGeometry x="283" y="133" width="64" height="64" as="geometry" />
        </mxCell>
        <mxCell id="acVyYkylDgPHkWjhtnSj-15" value="" style="edgeStyle=orthogonalEdgeStyle;rounded=0;orthogonalLoop=1;jettySize=auto;html=1;exitX=0.613;exitY=0.012;exitDx=0;exitDy=0;exitPerimeter=0;" edge="1" parent="WIyWlLk6GJQsqaUBKTNV-1">
          <mxGeometry relative="1" as="geometry">
            <mxPoint x="316.58500000000004" y="440.6" as="sourcePoint" />
            <mxPoint x="319" y="375" as="targetPoint" />
            <Array as="points">
              <mxPoint x="314" y="441" />
              <mxPoint x="314" y="417" />
              <mxPoint x="319" y="417" />
            </Array>
          </mxGeometry>
        </mxCell>
        <mxCell id="acVyYkylDgPHkWjhtnSj-31" value="" style="edgeStyle=orthogonalEdgeStyle;rounded=0;orthogonalLoop=1;jettySize=auto;html=1;fontSize=12;" edge="1" parent="WIyWlLk6GJQsqaUBKTNV-1" source="acVyYkylDgPHkWjhtnSj-9" target="acVyYkylDgPHkWjhtnSj-29">
          <mxGeometry relative="1" as="geometry" />
        </mxCell>
        <mxCell id="acVyYkylDgPHkWjhtnSj-9" value="Azure Repo" style="sketch=0;aspect=fixed;html=1;points=[];align=center;image;fontSize=12;image=img/lib/mscae/Azure_Repos.svg;" vertex="1" parent="WIyWlLk6GJQsqaUBKTNV-1">
          <mxGeometry x="288" y="440" width="45" height="50" as="geometry" />
        </mxCell>
        <mxCell id="acVyYkylDgPHkWjhtnSj-19" value="Helm Upgrade" style="edgeStyle=orthogonalEdgeStyle;rounded=0;orthogonalLoop=1;jettySize=auto;html=1;entryX=0.027;entryY=0.279;entryDx=0;entryDy=0;entryPerimeter=0;" edge="1" parent="WIyWlLk6GJQsqaUBKTNV-1" source="acVyYkylDgPHkWjhtnSj-10" target="acVyYkylDgPHkWjhtnSj-12">
          <mxGeometry relative="1" as="geometry" />
        </mxCell>
        <mxCell id="acVyYkylDgPHkWjhtnSj-10" value="Azure Release Pipepine" style="sketch=0;aspect=fixed;html=1;points=[];align=center;image;fontSize=12;image=img/lib/mscae/Azure_Pipelines.svg;" vertex="1" parent="WIyWlLk6GJQsqaUBKTNV-1">
          <mxGeometry x="289.5" y="223.75" width="50" height="50" as="geometry" />
        </mxCell>
        <mxCell id="acVyYkylDgPHkWjhtnSj-16" value="" style="edgeStyle=orthogonalEdgeStyle;rounded=0;orthogonalLoop=1;jettySize=auto;html=1;" edge="1" parent="WIyWlLk6GJQsqaUBKTNV-1" source="acVyYkylDgPHkWjhtnSj-11" target="acVyYkylDgPHkWjhtnSj-10">
          <mxGeometry relative="1" as="geometry" />
        </mxCell>
        <mxCell id="acVyYkylDgPHkWjhtnSj-11" value="Azure Build Pipeline" style="sketch=0;aspect=fixed;html=1;points=[];align=center;image;fontSize=12;image=img/lib/mscae/Azure_Pipelines.svg;" vertex="1" parent="WIyWlLk6GJQsqaUBKTNV-1">
          <mxGeometry x="290" y="309" width="49" height="49" as="geometry" />
        </mxCell>
        <mxCell id="acVyYkylDgPHkWjhtnSj-12" value="" style="rounded=0;whiteSpace=wrap;html=1;" vertex="1" parent="WIyWlLk6GJQsqaUBKTNV-1">
          <mxGeometry x="516" y="210" width="220" height="299" as="geometry" />
        </mxCell>
        <mxCell id="acVyYkylDgPHkWjhtnSj-13" value="AKS Cluster" style="aspect=fixed;html=1;points=[];align=center;image;fontSize=12;image=img/lib/azure2/containers/Kubernetes_Services.svg;" vertex="1" parent="WIyWlLk6GJQsqaUBKTNV-1">
          <mxGeometry x="584" y="247" width="68" height="60" as="geometry" />
        </mxCell>
        <mxCell id="acVyYkylDgPHkWjhtnSj-14" value="Azure Container Registry&amp;nbsp;" style="aspect=fixed;html=1;points=[];align=center;image;fontSize=12;image=img/lib/azure2/containers/Container_Registries.svg;" vertex="1" parent="WIyWlLk6GJQsqaUBKTNV-1">
          <mxGeometry x="588" y="401" width="68" height="61" as="geometry" />
        </mxCell>
        <mxCell id="acVyYkylDgPHkWjhtnSj-21" value="Helm Repo Add" style="endArrow=none;html=1;rounded=0;entryX=0.013;entryY=0.632;entryDx=0;entryDy=0;entryPerimeter=0;" edge="1" parent="WIyWlLk6GJQsqaUBKTNV-1" source="acVyYkylDgPHkWjhtnSj-10" target="acVyYkylDgPHkWjhtnSj-12">
          <mxGeometry width="50" height="50" relative="1" as="geometry">
            <mxPoint x="387" y="323" as="sourcePoint" />
            <mxPoint x="437" y="273" as="targetPoint" />
          </mxGeometry>
        </mxCell>
        <mxCell id="acVyYkylDgPHkWjhtnSj-22" value="Managed Container Platform in Azure&amp;nbsp;" style="rounded=0;whiteSpace=wrap;html=1;fontStyle=1;fontSize=14;" vertex="1" parent="WIyWlLk6GJQsqaUBKTNV-1">
          <mxGeometry x="240" y="38" width="333" height="60" as="geometry" />
        </mxCell>
        <mxCell id="acVyYkylDgPHkWjhtnSj-28" value="&lt;div style=&quot;text-align: justify;&quot;&gt;&lt;span style=&quot;font-size: 12px;&quot;&gt;Terraform&lt;/span&gt;&lt;/div&gt;" style="rounded=0;whiteSpace=wrap;html=1;fontSize=10;" vertex="1" parent="WIyWlLk6GJQsqaUBKTNV-1">
          <mxGeometry x="37.5" y="299" width="94" height="44" as="geometry" />
        </mxCell>
        <mxCell id="acVyYkylDgPHkWjhtnSj-30" value="" style="edgeStyle=orthogonalEdgeStyle;rounded=0;orthogonalLoop=1;jettySize=auto;html=1;fontSize=12;" edge="1" parent="WIyWlLk6GJQsqaUBKTNV-1" source="acVyYkylDgPHkWjhtnSj-29" target="acVyYkylDgPHkWjhtnSj-11">
          <mxGeometry relative="1" as="geometry">
            <Array as="points">
              <mxPoint x="374" y="339" />
              <mxPoint x="356" y="339" />
              <mxPoint x="356" y="327" />
            </Array>
          </mxGeometry>
        </mxCell>
        <mxCell id="acVyYkylDgPHkWjhtnSj-29" value="SonarCloud" style="rounded=0;whiteSpace=wrap;html=1;fontSize=12;" vertex="1" parent="WIyWlLk6GJQsqaUBKTNV-1">
          <mxGeometry x="339" y="382" width="70" height="47" as="geometry" />
        </mxCell>
      </root>
    </mxGraphModel>
  </diagram>
</mxfile>
